<svg width="24" height="25" viewBox="0 0 24 25" fill="none" xmlns="http://www.w3.org/2000/svg">
<path d="M12 23.1649C17.5229 23.1649 22 18.6878 22 13.1649C22 7.64207 17.5229 3.16492 12 3.16492C6.47715 3.16492 2 7.64207 2 13.1649C2 18.6878 6.47715 23.1649 12 23.1649Z" stroke="#016748" stroke-width="1.5" stroke-linecap="round" stroke-linejoin="round"/>
<path d="M15 9.66394C14.315 8.97895 13.1087 8.5025 12 8.47266M9 16.1639C9.64448 17.0233 10.8428 17.5134 12 17.5549M12 8.47266C10.6809 8.43716 9.5 9.03392 9.5 10.6639C9.5 13.6639 15 12.1639 15 15.1639C15 16.875 13.5362 17.6101 12 17.5549M12 8.47266V6.66394M12 17.5549V19.6639" stroke="#016748" stroke-width="1.5" stroke-linecap="round" stroke-linejoin="round"/>
</svg>
