<svg width="20" height="20" viewBox="0 0 20 20" fill="none" xmlns="http://www.w3.org/2000/svg">
<path d="M16.6663 9.16667C16.6663 5.48477 13.6816 2.5 9.99967 2.5C6.31778 2.5 3.33301 5.48477 3.33301 9.16667" stroke="#016748" stroke-width="1.5" stroke-linecap="round" stroke-linejoin="round"/>
<path d="M1.66699 12.6052V11.5616C1.66699 10.6439 2.29159 9.84393 3.18192 9.62135L4.2548 9.35313C4.63349 9.25846 5.00033 9.54487 5.00033 9.93521V14.2316C5.00033 14.622 4.63349 14.9084 4.2548 14.8137L3.18192 14.5455C2.29159 14.3229 1.66699 13.5229 1.66699 12.6052Z" stroke="#016748" stroke-width="1.5"/>
<path d="M18.3333 12.6052V11.5616C18.3333 10.6439 17.7087 9.84393 16.8184 9.62135L15.7455 9.35313C15.3668 9.25846 15 9.54487 15 9.93521V14.2316C15 14.622 15.3668 14.9084 15.7455 14.8137L16.8184 14.5455C17.7087 14.3229 18.3333 13.5229 18.3333 12.6052Z" stroke="#016748" stroke-width="1.5"/>
<path d="M16.6663 15V15.0833C16.6663 16.1879 15.7709 17.0833 14.6663 17.0833H12.083" stroke="#016748" stroke-width="1.5"/>
<path d="M11.25 18.3333H8.75C8.05964 18.3333 7.5 17.7736 7.5 17.0833C7.5 16.3929 8.05964 15.8333 8.75 15.8333H11.25C11.9404 15.8333 12.5 16.3929 12.5 17.0833C12.5 17.7736 11.9404 18.3333 11.25 18.3333Z" stroke="#016748" stroke-width="1.5"/>
</svg>
