<svg width="20" height="20" viewBox="0 0 20 20" fill="none" xmlns="http://www.w3.org/2000/svg">
<path d="M15 6.99996C15 5.58547 14.4732 4.22892 13.5355 3.22872C12.5979 2.22853 11.3261 1.66663 10 1.66663C8.67392 1.66663 7.40215 2.22853 6.46447 3.22872C5.52678 4.22892 5 5.58547 5 6.99996C5 13.2222 2.5 15 2.5 15H17.5C17.5 15 15 13.2222 15 6.99996Z" stroke="#016748" stroke-width="1.5" stroke-linecap="round" stroke-linejoin="round"/>
<path d="M11.4419 17.5C11.2954 17.7526 11.0851 17.9622 10.8321 18.1079C10.5791 18.2537 10.2922 18.3304 10.0003 18.3304C9.70828 18.3304 9.42142 18.2537 9.1684 18.1079C8.91539 17.9622 8.7051 17.7526 8.55859 17.5" stroke="#016748" stroke-width="1.5" stroke-linecap="round" stroke-linejoin="round"/>
</svg>
