<svg width="20" height="20" viewBox="0 0 20 20" fill="none" xmlns="http://www.w3.org/2000/svg">
<path d="M2.5 8.33337V15.5C2.5 16.6046 3.39543 17.5 4.5 17.5H15.5C16.6046 17.5 17.5 16.6046 17.5 15.5V8.33337" stroke="#016748" stroke-width="1.5"/>
<path d="M12.3613 17.5V12.5C12.3613 11.5796 11.6151 10.8334 10.6947 10.8334H9.02799C8.10752 10.8334 7.36133 11.5796 7.36133 12.5V17.5" stroke="#016748" stroke-width="1.5" stroke-miterlimit="16"/>
<path d="M18.152 7.69752L16.7913 2.93517C16.7177 2.67759 16.4823 2.5 16.2144 2.5H12.917L13.309 7.20377C13.3245 7.39043 13.4261 7.55919 13.5873 7.65444C13.9224 7.85234 14.5256 8.18726 15.0003 8.33333C15.8045 8.58079 16.9618 8.50834 17.6797 8.42616C18.0318 8.38586 18.2493 8.03823 18.152 7.69752Z" stroke="#016748" stroke-width="1.5"/>
<path d="M11.667 8.33333C12.1164 8.19506 12.6809 7.88757 13.0241 7.68726C13.2165 7.57498 13.3221 7.36103 13.3036 7.13904L12.917 2.5H7.08366L6.69707 7.13904C6.67857 7.36103 6.7842 7.57498 6.97658 7.68726C7.3198 7.88757 7.88426 8.19506 8.33366 8.33333C9.57784 8.71616 10.4228 8.71616 11.667 8.33333Z" stroke="#016748" stroke-width="1.5"/>
<path d="M3.20933 2.93517L1.84865 7.69752C1.75131 8.03823 1.9689 8.38586 2.32095 8.42616C3.03884 8.50834 4.1961 8.58079 5.00033 8.33333C5.47507 8.18726 6.07823 7.85234 6.41331 7.65444C6.57459 7.55919 6.67612 7.39043 6.69168 7.20377L7.08366 2.5H3.78624C3.51835 2.5 3.28292 2.67759 3.20933 2.93517Z" stroke="#016748" stroke-width="1.5"/>
</svg>
